<?xml version="1.0" encoding="UTF-8" standalone="no"?>
<svg width="426px" height="60px" viewBox="0 0 426 60" version="1.1" xmlns="http://www.w3.org/2000/svg" xmlns:xlink="http://www.w3.org/1999/xlink" xmlns:sketch="http://www.bohemiancoding.com/sketch/ns">
    <!-- Generator: Sketch 3.0.4 (8053) - http://www.bohemiancoding.com/sketch -->
    <title>a</title>
    <desc>Created with Sketch.</desc>
    <defs></defs>
    <g id="Page-1" stroke="none" stroke-width="1" fill="none" fill-rule="evenodd" sketch:type="MSPage">
        <g id="a" sketch:type="MSLayerGroup" transform="translate(1.000000, 0.000000)">
            <g id="Page-1" sketch:type="MSShapeGroup">
                <g id="dh_logo-a-2014">
                    <g id="Group">
                        <g>
                            <g id="Shape" transform="translate(77.000000, 8.000000)" fill="#1F3244">
                                <path d="M0.1,0.2 L15.9,0.2 C31.2,0.2 44.1,6.7 44.1,24.2 C44.1,39.6 31.5,47.9 17.3,47.9 L0.1,47.9 L0.1,0.2 L0.1,0.2 Z M10.6,38.1 L16.1,38.1 C25.9,38.1 33.2,34.4 33.2,23.6 C33.2,14.2 25.7,9.9 16.8,9.9 L10.6,9.9 L10.6,38.1 L10.6,38.1 Z"></path>
                                <path d="M49.5,15.1 L59.6,15.1 L59.6,20.4 L59.7,20.4 C61.9,16.4 64.7,14.3 69.1,14.3 C70.2,14.3 71.5,14.4 72.5,14.6 L72.5,23.8 C71.1,23.4 69.7,23.1 68.2,23.1 C60.5,23.1 59.6,27.5 59.6,34.1 L59.6,47.8 L49.5,47.8 L49.5,15.1 L49.5,15.1 Z"></path>
                                <path d="M106.8,42.2 C103.6,46.3 98.3,48.7 93,48.7 C82.9,48.7 74.8,42 74.8,31.5 C74.8,21 82.9,14.3 93,14.3 C102.4,14.3 108.3,21 108.3,31.5 L108.3,34.7 L84.9,34.7 C85.7,38.5 88.6,41 92.5,41 C95.8,41 98,39.3 99.7,37 L106.8,42.2 L106.8,42.2 Z M98.3,27.8 C98.4,24.4 95.7,21.6 92.1,21.6 C87.7,21.6 85.2,24.6 85,27.8 L98.3,27.8 L98.3,27.8 Z"></path>
                                <path d="M133.8,43.7 L133.7,43.7 C131.5,47.2 127.4,48.6 123.3,48.6 C117.2,48.6 111.7,45.1 111.7,38.5 C111.7,27.2 125.4,27 133.8,27 C133.8,23.4 130.8,21.1 127.3,21.1 C124,21.1 121.2,22.6 119.1,25 L113.7,19.5 C117.4,16 122.8,14.2 128.1,14.2 C139.9,14.2 143,20.2 143,31.1 L143,47.7 L133.7,47.7 L133.7,43.7 L133.8,43.7 L133.8,43.7 Z M131.3,33.5 C128.2,33.5 121.3,33.8 121.3,38.2 C121.3,40.6 123.9,41.8 126.1,41.8 C130.1,41.8 133.8,39.7 133.8,35.7 L133.8,33.5 L131.3,33.5 L131.3,33.5 Z"></path>
                                <path d="M149.5,15.1 L159.2,15.1 L159.2,19.5 L159.3,19.5 C160.6,16.9 163.9,14.2 168.9,14.2 C173.5,14.2 177.2,16.1 179,20.1 C181.4,15.9 184.5,14.2 189.4,14.2 C198.3,14.2 201,20.5 201,28.4 L201,47.7 L190.9,47.7 L190.9,28.7 C190.9,25.7 189.8,23.1 186.5,23.1 C181.9,23.1 180.4,26.4 180.4,30.4 L180.4,47.7 L170.3,47.7 L170.3,30.5 C170.3,28.1 170.4,23.2 165.8,23.2 C160.5,23.2 159.7,27.3 159.7,31.5 L159.7,47.8 L149.6,47.8 L149.6,15.1 L149.5,15.1 L149.5,15.1 Z"></path>
                                <path d="M207.3,0.2 L217.8,0.2 L217.8,18 L238.2,18 L238.2,0.2 L248.7,0.2 L248.7,47.9 L238.2,47.9 L238.2,27.2 L217.8,27.2 L217.8,47.8 L207.3,47.8 L207.3,0.2 L207.3,0.2 Z"></path>
                                <path d="M271.4,14.3 C281.5,14.3 289.6,21 289.6,31.5 C289.6,42 281.5,48.7 271.4,48.7 C261.3,48.7 253.2,42 253.2,31.5 C253.2,21 261.3,14.3 271.4,14.3 L271.4,14.3 L271.4,14.3 Z M271.4,39.7 C276.4,39.7 279.5,36.3 279.5,31.4 C279.5,26.5 276.5,23.1 271.4,23.1 C266.4,23.1 263.3,26.5 263.3,31.4 C263.3,36.4 266.3,39.7 271.4,39.7 L271.4,39.7 L271.4,39.7 Z"></path>
                                <path d="M312.7,24.7 C311.2,22.9 309.3,21.9 306.8,21.9 C305.1,21.9 303.1,22.6 303.1,24.6 C303.1,29.4 320.1,25.3 320.1,37.8 C320.1,46.1 312,48.6 305,48.6 C300.4,48.6 295.4,47.5 292.1,44.2 L298.2,37.4 C300.1,39.7 302.3,41 305.3,41 C307.6,41 309.9,40.4 309.9,38.6 C309.9,33.3 292.9,37.8 292.9,25.3 C292.9,17.6 299.8,14.3 306.6,14.3 C310.9,14.3 315.7,15.4 318.7,18.6 L312.7,24.7 L312.7,24.7 Z"></path>
                                <path d="M347.2,23.2 L338.3,23.2 L338.3,34.1 C338.3,37.6 338.7,40.2 343.1,40.2 C344.2,40.2 346.3,40.1 347.2,39.3 L347.2,47.7 C345,48.5 342.5,48.7 340.1,48.7 C333.4,48.7 328.2,45.9 328.2,38.8 L328.2,23.2 L321.7,23.2 L321.7,15.1 L328.2,15.1 L328.2,5.4 L338.3,5.4 L338.3,15.1 L347.2,15.1 L347.2,23.2 L347.2,23.2 Z"></path>
                            </g>
                            <g id="mark_1_">
                                <path d="M59.1,44.9 C54.2,47.6 48.6,49.1 42.6,49 C24.9,48.6 10.8,34.3 11.1,16.9 C11.2,11 13,5.5 16,0.9 C6.5,6.2 -4.27435864e-15,16.1 -0.2,27.6 C-0.6,45 13.6,59.3 31.3,59.7 C42.9,59.9 53.3,54 59.1,44.9" id="Shape" fill="#1F3244"></path>
                                <path d="M42.2,45.3 L42.8,45.3 C47.4,45.3 52,44.2 56.1,42 C58.5,37.9 59.9,33.1 59.9,28 C59.9,12.7 47.5,0.3 32.3,0.3 C27.5,0.3 23,1.5 19,3.7 C16.5,7.8 15.1,12.5 14.9,17.3 C14.6,32.4 26.8,45 42.2,45.3" id="Shape" fill="#3E95BE"></path>
                            </g>
                        </g>
                    </g>
                </g>
            </g>
        </g>
    </g>
</svg>